<svg width="112" height="97" viewBox="0 0 112 97" fill="none" xmlns="http://www.w3.org/2000/svg">
<g clip-path="url(#clip0_1500_13001)">
<ellipse cx="56" cy="48.0403" rx="48" ry="48.0003" fill="url(#paint0_linear_1500_13001)"/>
<path d="M100.866 74.5859H103.823" stroke="#004B4E" stroke-width="1.28124" stroke-linecap="round" stroke-linejoin="round"/>
<path fill-rule="evenodd" clip-rule="evenodd" d="M84.604 67.4343C84.604 67.3016 84.7116 67.1941 84.8442 67.1941H106.54C106.672 67.1941 106.78 67.3016 106.78 67.4343V77.3026C106.78 77.4353 106.672 77.5428 106.54 77.5428H84.8442C84.7116 77.5428 84.604 77.4353 84.604 77.3026V67.4343Z" stroke="#004B4E" stroke-width="1.28124" stroke-linecap="round" stroke-linejoin="round"/>
<path d="M91.2565 70.8901L87.5605 74.5861" stroke="#004B4E" stroke-width="1.28124" stroke-linecap="round" stroke-linejoin="round"/>
<path d="M91.2565 74.5861L87.5605 70.8901" stroke="#004B4E" stroke-width="1.28124" stroke-linecap="round" stroke-linejoin="round"/>
<path d="M97.9094 70.8901L94.2134 74.5861" stroke="#004B4E" stroke-width="1.28124" stroke-linecap="round" stroke-linejoin="round"/>
<path d="M97.9094 74.5861L94.2134 70.8901" stroke="#004B4E" stroke-width="1.28124" stroke-linecap="round" stroke-linejoin="round"/>
<path d="M87.9158 31.8063C87.8368 31.7668 87.7974 31.7027 87.7974 31.6139C87.7974 31.5251 87.8171 31.4412 87.8566 31.3623C89.0799 29.6654 90.6289 28.3532 92.5034 27.4258C94.3779 26.4985 96.3806 26.0348 98.5117 26.0348C100.643 26.0348 102.65 26.4886 104.535 27.3962C106.419 28.3039 107.983 29.6062 109.226 31.3031C109.285 31.4018 109.31 31.4807 109.3 31.5399C109.29 31.5991 109.256 31.6583 109.196 31.7175C109.137 31.7767 109.063 31.8063 108.974 31.8063C108.886 31.8063 108.802 31.7569 108.723 31.6583C107.559 30.0403 106.074 28.7972 104.268 27.929C102.463 27.0608 100.544 26.6267 98.5117 26.6267C96.4793 26.6267 94.5752 27.0657 92.7993 27.9438C91.0235 28.8219 89.5436 30.06 88.3597 31.6583C88.2808 31.7569 88.2068 31.8161 88.1377 31.8359C88.0687 31.8556 87.9947 31.8457 87.9158 31.8063ZM102.034 46.6938C100.001 46.1808 98.3291 45.1646 97.017 43.6453C95.7048 42.1259 95.0487 40.281 95.0487 38.1105C95.0487 37.1831 95.3891 36.4037 96.0699 35.7723C96.7506 35.1409 97.5645 34.8252 98.5117 34.8252C99.4588 34.8252 100.273 35.1409 100.953 35.7723C101.634 36.4037 101.975 37.1831 101.975 38.1105C101.975 38.8603 102.266 39.4918 102.848 40.0048C103.43 40.5178 104.106 40.7743 104.875 40.7743C105.625 40.7743 106.281 40.5178 106.843 40.0048C107.406 39.4918 107.687 38.8603 107.687 38.1105C107.687 35.6835 106.784 33.6512 104.979 32.0134C103.173 30.3757 101.018 29.5569 98.5117 29.5569C96.0057 29.5569 93.85 30.3757 92.0446 32.0134C90.2392 33.6512 89.3364 35.6835 89.3364 38.1105C89.3364 38.5841 89.3907 39.2007 89.4992 39.9604C89.6077 40.72 89.8396 41.5833 90.1948 42.5502C90.2342 42.6488 90.2342 42.7228 90.1948 42.7721C90.1553 42.8215 90.106 42.8659 90.0468 42.9053C89.9678 42.9448 89.884 42.9547 89.7952 42.9349C89.7064 42.9152 89.6423 42.856 89.6028 42.7573C89.3463 42.0075 89.144 41.2429 88.9961 40.4635C88.8481 39.6841 88.7741 38.8998 88.7741 38.1105C88.7741 35.5651 89.7409 33.3897 91.6746 31.5843C93.6083 29.7788 95.8873 28.8761 98.5117 28.8761C101.195 28.8761 103.499 29.764 105.423 31.5399C107.347 33.3157 108.308 35.506 108.308 38.1105C108.308 39.0182 107.973 39.7877 107.302 40.4191C106.631 41.0505 105.822 41.3663 104.875 41.3663C103.908 41.3663 103.08 41.0505 102.389 40.4191C101.698 39.7877 101.353 39.0182 101.353 38.1105C101.353 37.341 101.072 36.6997 100.509 36.1867C99.9471 35.6737 99.2812 35.4172 98.5117 35.4172C97.7421 35.4172 97.0712 35.6737 96.499 36.1867C95.9268 36.6997 95.6407 37.341 95.6407 38.1105C95.6407 40.1626 96.2622 41.8743 97.5053 43.2457C98.7484 44.617 100.297 45.579 102.152 46.1315C102.271 46.1709 102.345 46.2202 102.374 46.2794C102.404 46.3386 102.409 46.4077 102.389 46.4866C102.369 46.5853 102.33 46.6543 102.271 46.6938C102.211 46.7333 102.132 46.7333 102.034 46.6938ZM91.5858 25.3836C91.4872 25.4231 91.4132 25.428 91.3639 25.3984C91.3145 25.3688 91.2701 25.3244 91.2307 25.2652C91.1912 25.2258 91.1715 25.1666 91.1715 25.0876C91.1715 25.0087 91.2011 24.9495 91.2603 24.9101C92.385 24.2984 93.5639 23.8347 94.7972 23.519C96.0304 23.2033 97.2686 23.0454 98.5117 23.0454C99.7942 23.0454 101.052 23.2033 102.285 23.519C103.519 23.8347 104.698 24.2786 105.822 24.8509C105.921 24.8903 105.975 24.9495 105.985 25.0284C105.995 25.1074 105.98 25.1764 105.941 25.2356C105.901 25.2948 105.847 25.3441 105.778 25.3836C105.709 25.4231 105.625 25.4231 105.526 25.3836C104.441 24.8509 103.306 24.4316 102.123 24.1257C100.939 23.8199 99.735 23.667 98.5117 23.667C97.2883 23.667 96.0945 23.81 94.9304 24.0961C93.7662 24.3822 92.6514 24.8114 91.5858 25.3836ZM95.5519 46.3682C94.4075 45.1843 93.5146 43.9412 92.8733 42.6389C92.2321 41.3367 91.9114 39.8272 91.9114 38.1105C91.9114 36.3544 92.5576 34.8745 93.85 33.6709C95.1425 32.4673 96.6963 31.8655 98.5117 31.8655C100.327 31.8655 101.891 32.4673 103.203 33.6709C104.515 34.8745 105.171 36.3544 105.171 38.1105C105.171 38.2092 105.146 38.2832 105.097 38.3325C105.048 38.3818 104.974 38.4065 104.875 38.4065C104.776 38.4065 104.698 38.3818 104.638 38.3325C104.579 38.2832 104.55 38.2092 104.55 38.1105C104.55 36.5123 103.953 35.1705 102.759 34.0853C101.565 33 100.149 32.4574 98.5117 32.4574C96.8739 32.4574 95.468 33 94.294 34.0853C93.12 35.1705 92.533 36.5123 92.533 38.1105C92.533 39.7877 92.824 41.2183 93.4061 42.4022C93.9882 43.5861 94.8514 44.77 95.9959 45.9539C96.0748 46.0328 96.1093 46.1068 96.0995 46.1758C96.0896 46.2449 96.0551 46.309 95.9959 46.3682C95.9564 46.4077 95.8923 46.4422 95.8035 46.4718C95.7147 46.5014 95.6308 46.4669 95.5519 46.3682ZM104.609 44.2076C102.872 44.2076 101.368 43.6305 100.095 42.4762C98.8224 41.3219 98.1861 39.8667 98.1861 38.1105C98.1861 38.0119 98.2107 37.9329 98.2601 37.8738C98.3094 37.8146 98.3834 37.785 98.4821 37.785C98.5807 37.785 98.6547 37.8146 98.704 37.8738C98.7534 37.9329 98.778 38.0119 98.778 38.1105C98.778 39.7088 99.365 41.0259 100.539 42.0618C101.713 43.0977 103.07 43.6157 104.609 43.6157C104.767 43.6157 104.954 43.6058 105.171 43.5861C105.388 43.5663 105.625 43.5367 105.881 43.4973C105.98 43.4775 106.059 43.4923 106.118 43.5417C106.177 43.591 106.217 43.6453 106.237 43.7045C106.256 43.7834 106.251 43.8524 106.222 43.9116C106.192 43.9708 106.128 44.0103 106.029 44.03C105.674 44.1287 105.363 44.183 105.097 44.1928C104.831 44.2027 104.668 44.2076 104.609 44.2076Z" stroke="#004B4E" stroke-width="0.721422"/>
<g clip-path="url(#clip1_1500_13001)">
<path d="M25.7678 49.6323V52.5547C25.7678 52.9422 25.6139 53.3139 25.3399 53.5879C25.0658 53.8619 24.6942 54.0159 24.3066 54.0159H21.3843" stroke="#004B4E" stroke-width="1.42772" stroke-linecap="round" stroke-linejoin="round"/>
<path d="M21.3843 32.0981H24.3066C24.6942 32.0981 25.0658 32.2521 25.3399 32.5261C25.6139 32.8001 25.7678 33.1718 25.7678 33.5593V36.4817" stroke="#004B4E" stroke-width="1.42772" stroke-linecap="round" stroke-linejoin="round"/>
<path d="M3.8501 36.4817V33.5593C3.8501 33.1718 4.00404 32.8001 4.27807 32.5261C4.55209 32.2521 4.92375 32.0981 5.31128 32.0981H8.23365" stroke="#004B4E" stroke-width="1.42772" stroke-linecap="round" stroke-linejoin="round"/>
<path d="M8.23365 54.0159H5.31128C4.92375 54.0159 4.55209 53.8619 4.27807 53.5879C4.00404 53.3139 3.8501 52.9422 3.8501 52.5547V49.6323" stroke="#004B4E" stroke-width="1.42772" stroke-linecap="round" stroke-linejoin="round"/>
<path d="M14.8093 44.1527C17.0285 44.1527 18.8275 42.3537 18.8275 40.1345C18.8275 37.9152 17.0285 36.1162 14.8093 36.1162C12.59 36.1162 10.791 37.9152 10.791 40.1345C10.791 42.3537 12.59 44.1527 14.8093 44.1527Z" stroke="#004B4E" stroke-width="1.42772" stroke-linecap="round" stroke-linejoin="round"/>
<path d="M21.0095 49.9985C20.5562 48.7162 19.7165 47.6061 18.6061 46.8209C17.4957 46.0357 16.1692 45.614 14.8092 45.614C13.4492 45.614 12.1226 46.0357 11.0122 46.8209C9.90182 47.6061 9.06216 48.7162 8.60889 49.9985" stroke="#004B4E" stroke-width="1.42772" stroke-linecap="round" stroke-linejoin="round"/>
</g>
<path d="M54.7369 47.9586C57.8365 47.9586 60.3492 45.4459 60.3492 42.3462C60.3492 39.2466 57.8365 36.7339 54.7369 36.7339C51.6372 36.7339 49.1245 39.2466 49.1245 42.3462C49.1245 45.4459 51.6372 47.9586 54.7369 47.9586Z" fill="#004B4E"/>
<path d="M69.7034 47.9586C69.7062 47.1768 69.4989 46.4086 69.1032 45.7342C68.7076 45.0599 68.1381 44.5042 67.4542 44.1252C66.7704 43.7463 65.9973 43.5579 65.2158 43.5798C64.4343 43.6018 63.673 43.8332 63.0115 44.25C62.35 44.6667 61.8126 45.2535 61.4554 45.9489C61.0982 46.6444 60.9343 47.423 60.9809 48.2034C61.0275 48.9839 61.2828 49.7375 61.7203 50.3855C62.1577 51.0335 62.7611 51.5522 63.4675 51.8872V58.5597L65.3383 60.4305L68.4563 57.3125L66.5855 55.4417L68.4563 53.5709L66.9097 52.0244C67.7311 51.7075 68.4374 51.1496 68.936 50.424C69.4346 49.6984 69.7021 48.839 69.7034 47.9586ZM65.3383 47.9586C65.0916 47.9586 64.8505 47.8854 64.6454 47.7484C64.4403 47.6114 64.2804 47.4166 64.186 47.1887C64.0916 46.9608 64.0669 46.71 64.1151 46.4681C64.1632 46.2262 64.282 46.0039 64.4564 45.8295C64.6308 45.6551 64.853 45.5363 65.095 45.4882C65.3369 45.4401 65.5877 45.4647 65.8156 45.5591C66.0435 45.6535 66.2382 45.8134 66.3753 46.0185C66.5123 46.2236 66.5855 46.4647 66.5855 46.7114C66.5855 47.0422 66.4541 47.3594 66.2202 47.5933C65.9863 47.8272 65.6691 47.9586 65.3383 47.9586Z" fill="#004B4E"/>
<path d="M59.6512 50.4781C58.6934 50.0511 57.6566 49.8302 56.608 49.8296H52.8664C50.8818 49.8296 48.9784 50.618 47.5751 52.0214C46.1717 53.4247 45.3833 55.3281 45.3833 57.3127V59.8071H61.5968V52.9351C60.7557 52.2889 60.0873 51.4449 59.6512 50.4781Z" fill="#004B4E"/>
<rect x="39.2729" y="15.4604" width="35.8443" height="65.4755" rx="1.67273" stroke="#004B4E" stroke-width="2.38962" stroke-linejoin="round"/>
</g>
<defs>
<linearGradient id="paint0_linear_1500_13001" x1="8" y1="48.0403" x2="104" y2="48.0403" gradientUnits="userSpaceOnUse">
<stop stop-color="#BCEDFA"/>
<stop offset="1" stop-color="#BFEFF2"/>
</linearGradient>
<clipPath id="clip0_1500_13001">
<rect width="110.4" height="96.0005" fill="white" transform="translate(0.799805 0.0397949)"/>
</clipPath>
<clipPath id="clip1_1500_13001">
<rect width="23.3789" height="23.3789" fill="white" transform="translate(3.11963 31.3674)"/>
</clipPath>
</defs>
</svg>
