<svg width="18" height="18" viewBox="0 0 13 11" fill="none" xmlns="http://www.w3.org/2000/svg">
    <path d="M11.7812 6.64551V1.36426C11.7812 0.687174 11.2342 0.145508 10.5625 0.145508H2.4375C1.76042 0.145508 1.21875 0.687174 1.21875 1.36426V6.64551C1.21875 6.86759 1.3975 7.05176 1.625 7.05176H11.375C11.5971 7.05176 11.7812 6.86759 11.7812 6.64551ZM10.9688 6.64551L11.375 6.23926H1.625L2.03125 6.64551V1.36426C2.03125 1.13676 2.21 0.958008 2.4375 0.958008H10.5625C10.7846 0.958008 10.9688 1.13676 10.9688 1.36426V6.64551Z"
          fill="#6C7979"/>
    <path d="M12.1493 9.32162C12.236 9.52203 12.1439 9.76578 11.9381 9.85245C11.8839 9.87412 11.8297 9.88495 11.7702 9.88495L1.20224 9.87953C0.97474 9.87953 0.790573 9.69537 0.790573 9.47328C0.785156 9.4137 0.801406 9.35953 0.823073 9.30537L1.96599 6.79203L1.59224 7.02495H11.3422L10.9685 6.78662L12.1168 9.30049L12.1493 9.32162ZM12.886 8.98578L11.7322 6.46703C11.6618 6.32078 11.521 6.2287 11.3585 6.2287H1.60849C1.44599 6.2287 1.29974 6.32078 1.23474 6.46162L0.0809896 8.97495C0.00515625 9.13203 -0.0273438 9.29995 -0.0273438 9.47328C-0.0273438 10.1449 0.514323 10.6866 1.19141 10.6866H11.7485C11.9164 10.6866 12.0843 10.6487 12.2414 10.5783C12.8535 10.302 13.1297 9.58162 12.8589 8.96953L12.886 8.98578Z"
          fill="#6C7979"/>
    <path d="M5.6875 9.08301H7.3125C7.53458 9.08301 7.71875 8.89884 7.71875 8.67676C7.71875 8.44926 7.53458 8.27051 7.3125 8.27051H5.6875C5.46 8.27051 5.28125 8.44926 5.28125 8.67676C5.28125 8.89884 5.46 9.08301 5.6875 9.08301Z"
          fill="#6C7979"/>
</svg>
