<svg xmlns="http://www.w3.org/2000/svg" viewBox="0 0 64 80" x="0px" y="0px"><title>Real Estate</title><path d="M34.69,54.22l0,2.47a2,2,0,0,0,.53,1.37l4.85,5.3a2,2,0,0,0,1.46.64h0A2,2,0,0,0,43,63.38l4.93-5.23a2,2,0,0,0,.54-1.36l.13-18.26A16.75,16.75,0,0,0,53.76,35a16.67,16.67,0,0,0,0-23.57A16.73,16.73,0,0,0,35.28,8a16.31,16.31,0,0,0-5.09,3.48A16.85,16.85,0,0,0,26.53,17h-2a9,9,0,1,0-8.34,0H13.36a8,8,0,0,0-8,8V39a5,5,0,0,0,5,5,4.71,4.71,0,0,0,1-.11V58.5a5.49,5.49,0,0,0,9,4.23,5.49,5.49,0,0,0,9-4.23V43.9a5.56,5.56,0,0,0,1,.1,5,5,0,0,0,4.45-2.78,2,2,0,0,0,.61,1.23l1.48,1.4-1.51,1.39a2,2,0,0,0-.65,1.46v1.8A2,2,0,0,0,35.36,50l1.49,1.41-1.51,1.38A2,2,0,0,0,34.69,54.22ZM15.36,9a5,5,0,1,1,5,5A5,5,0,0,1,15.36,9Zm16,30a1,1,0,0,1-1,1,1,1,0,0,1-.7-.3,1,1,0,0,1-.3-.7V29a2,2,0,0,0-4,0V58.5a1.5,1.5,0,0,1-3,0V40a2,2,0,0,0-4,0V58.5a1.5,1.5,0,0,1-3,0V29a2,2,0,0,0-4,0V39a1,1,0,0,1-1,1,1,1,0,0,1-.7-.3,1,1,0,0,1-.3-.7V25a4,4,0,0,1,4-4h14l.34,0h.12a4,4,0,0,1,3.54,4Zm5.91-23.34a5.71,5.71,0,1,1,0,8.08A5.72,5.72,0,0,1,37.27,15.66Z"/></svg>
