<svg width="18" height="18" viewBox="0 0 13 14" fill="none" xmlns="http://www.w3.org/2000/svg">
    <g clip-path="url(#clip0_1500_13443)">
        <path d="M9.75054 7.42676V11.8955C9.75054 12.5672 9.20346 13.1143 8.53179 13.1143H4.46929C3.79167 13.1143 3.25 12.5672 3.25 11.8955V2.95801C3.25 2.28092 3.79167 1.73926 4.46875 1.73926H8.53125C9.20292 1.73926 9.75 2.28092 9.75 2.95801L9.75054 7.42676ZM10.563 7.42676V2.95801C10.563 1.83134 9.65304 0.926758 8.53179 0.926758H4.46929C3.34208 0.926216 2.4375 1.83134 2.4375 2.95801V11.8955C2.4375 13.0168 3.34208 13.9268 4.46875 13.9268H8.53125C9.6525 13.9268 10.5625 13.0168 10.5625 11.8955L10.563 7.42676Z"
              fill="#6C7979"/>
        <path d="M2.84375 11.4893H10.1563C10.3783 11.4893 10.5625 11.3051 10.5625 11.083C10.5625 10.8555 10.3783 10.6768 10.1563 10.6768H2.84375C2.61625 10.6768 2.4375 10.8555 2.4375 11.083C2.4375 11.3051 2.61625 11.4893 2.84375 11.4893Z"
              fill="#6C7979"/>
    </g>
    <defs>
        <clipPath id="clip0_1500_13443">
            <rect width="13" height="13" fill="white" transform="translate(0 0.926758)"/>
        </clipPath>
    </defs>
</svg>
